<?xml version="1.0" encoding="utf-8"?>
<!-- Generator: Adobe Illustrator 21.0.0, SVG Export Plug-In . SVG Version: 6.00 Build 0)  -->
<svg version="1.1" id="Слой_1" xmlns="http://www.w3.org/2000/svg" xmlns:xlink="http://www.w3.org/1999/xlink" x="0px" y="0px"
	 viewBox="0 0 89 115" style="enable-background:new 0 0 89 115;" xml:space="preserve">
<style type="text/css">
	.st0{fill:#9D9C9C;}
</style>
<g>
	<g>
		<path class="st0" d="M36.7,5.2l14.7,5.5l0.2,0.1V11v1.9v0.2l-0.2,0.1l-14.7,5.5l-0.4,0.1v-0.3v-2v-0.2l0.2-0.1l10.7-3.7l0,0
			c0.4-0.1,0.8-0.3,1.2-0.4l0.2-0.1l-0.2-0.1c-0.4-0.1-0.8-0.3-1.2-0.4l0,0L36.5,7.7l-0.2-0.1V7.4V5.5V5L36.7,5.2L36.7,5.2z
			 M51.8,68.7V69l0,0c0,0.7-0.1,1.3-0.2,1.8c-0.1,0.5-0.3,1.1-0.5,1.5l0,0c-0.3,0.5-0.5,0.9-1,1.2c-0.3,0.3-0.8,0.6-1.3,0.8
			c-0.5,0.2-1,0.3-1.6,0.4s-1.4,0.1-2.1,0.1h-8.5h-0.3v-0.3v-1.9v-0.3h0.3H45c0.6,0,1.2,0,1.6-0.1c0.4-0.1,0.8-0.1,1.1-0.3
			c0.3-0.1,0.5-0.3,0.7-0.4c0.2-0.2,0.4-0.4,0.5-0.7c0.1-0.3,0.3-0.5,0.3-0.9c0.1-0.3,0.1-0.7,0.1-1.1c0-0.7-0.1-1.3-0.2-1.7
			c-0.1-0.5-0.3-0.8-0.6-1.1c-0.3-0.3-0.7-0.5-1.3-0.6s-1.4-0.2-2.2-0.2h-8.4h-0.3v-0.3V63v-0.3h0.3h8.5c0.7,0,1.4,0.1,2,0.1
			c0.6,0.1,1.2,0.2,1.6,0.4l0,0c0.5,0.2,0.9,0.4,1.3,0.7c0.4,0.3,0.7,0.7,1,1.1c0.3,0.5,0.5,0.9,0.6,1.5
			C51.7,67.4,51.8,68,51.8,68.7L51.8,68.7L51.8,68.7z M51.8,26.2v0.2l0,0c0,0.7-0.1,1.3-0.3,1.9c-0.2,0.6-0.4,1.2-0.7,1.7
			c-0.3,0.5-0.7,1.1-1.2,1.5c-0.5,0.4-1,0.8-1.6,1.1l0,0c-0.6,0.3-1.2,0.5-1.8,0.7c-0.6,0.1-1.3,0.2-2,0.2c-1.2,0-2.4-0.1-3.3-0.5
			c-1-0.3-1.8-0.9-2.6-1.5c-0.7-0.7-1.3-1.5-1.6-2.3s-0.5-1.8-0.5-2.8c0-0.7,0.1-1.3,0.3-2c0.1-0.6,0.4-1.2,0.7-1.8
			c0.3-0.5,0.7-1.1,1.2-1.5c0.5-0.4,1-0.8,1.6-1.1l0,0c0.6-0.3,1.2-0.5,1.9-0.7c0.7-0.1,1.4-0.2,2.2-0.2c0.7,0,1.5,0.1,2.2,0.2
			c0.7,0.1,1.4,0.4,2,0.7c0.6,0.3,1.2,0.7,1.6,1.1c0.5,0.5,0.9,0.9,1.2,1.5l0,0c0.3,0.5,0.5,1.1,0.7,1.7
			C51.7,25,51.8,25.6,51.8,26.2L51.8,26.2L51.8,26.2z M38.6,28c0.2,0.5,0.5,1.1,1,1.5c0.4,0.5,1,0.8,1.8,1s1.7,0.3,2.7,0.3
			c0.9,0,1.6-0.1,2.2-0.3c0.7-0.2,1.2-0.5,1.7-1l0,0c0.5-0.5,0.8-0.9,1.1-1.5c0.2-0.5,0.3-1.1,0.3-1.8s-0.1-1.3-0.3-1.8
			c-0.3-0.5-0.6-1.1-1.1-1.5c-0.5-0.4-1.1-0.7-1.8-1c-0.7-0.2-1.5-0.3-2.4-0.3l0,0c-0.5,0-1.1,0.1-1.6,0.1c-0.5,0.1-1,0.3-1.4,0.4
			l0,0c-0.4,0.2-0.8,0.4-1.1,0.7c-0.3,0.3-0.6,0.6-0.8,0.9c-0.2,0.3-0.4,0.7-0.5,1.1c-0.1,0.4-0.2,0.8-0.2,1.3
			C38.3,26.9,38.4,27.5,38.6,28L38.6,28z M46.3,43.7h5h0.3V44v1.9v0.3h-0.3H36.6h-0.3v-0.3V44v-0.3h0.3h6.5l-6.7-6.5l-0.1-0.1v-0.1
			v-2.6v-0.7l0.5,0.5l5.8,5.8l8.5-6.1l0.5-0.3v0.6v2.5v0.1l-0.1,0.1l-7.1,4.9L46.3,43.7L46.3,43.7z M38.5,53.7v4.2h4.2v-3.8
			c0-0.4,0-0.8-0.1-1.1s-0.1-0.6-0.2-0.8c-0.1-0.2-0.2-0.4-0.3-0.5c-0.1-0.1-0.3-0.3-0.5-0.4c-0.2-0.1-0.3-0.2-0.5-0.3
			C40.9,51,40.7,51,40.5,51c-0.3,0-0.5,0.1-0.8,0.1c-0.3,0.1-0.5,0.3-0.7,0.5c-0.2,0.2-0.3,0.5-0.4,0.9
			C38.6,52.8,38.5,53.2,38.5,53.7L38.5,53.7z M45,57.9h6.2h0.3v0.3v1.9v0.3h-0.3H36.5h-0.3v-0.4v-6.3c0-0.7,0.1-1.2,0.1-1.7
			c0.1-0.5,0.2-0.9,0.3-1.3c0.1-0.3,0.3-0.7,0.6-1c0.3-0.3,0.5-0.5,1-0.7c0.3-0.2,0.7-0.4,1.2-0.5c0.4-0.1,0.8-0.1,1.2-0.1l0,0
			c0.5,0,1.1,0.1,1.6,0.3c0.5,0.2,0.9,0.5,1.3,0.8c0.4,0.3,0.7,0.8,1,1.3c0.1,0.3,0.3,0.7,0.3,1c0.1-0.2,0.2-0.3,0.3-0.5l0,0
			c0.3-0.3,0.5-0.5,0.9-0.9l0,0c0.3-0.3,0.7-0.5,1.1-0.8l0,0l4-2.5l0.5-0.3v0.5v2.4v0.1L51.4,50l-3.1,1.9l0,0
			c-0.5,0.3-0.8,0.5-1.2,0.7c-0.3,0.2-0.6,0.4-0.8,0.6l0,0c-0.2,0.2-0.4,0.3-0.5,0.5c-0.1,0.1-0.3,0.3-0.3,0.4l0,0
			c-0.1,0.1-0.1,0.3-0.2,0.4l0,0c-0.1,0.1-0.1,0.3-0.1,0.4l0,0c0,0.1-0.1,0.2-0.1,0.4c0,0.1,0,0.4,0,0.6L45,57.9L45,57.9z
			 M38.6,80.9h12.7h0.3v0.3v1.9v0.3h-0.3H38.6v4.4v0.3h-0.3h-1.7h-0.3v-0.3V76.5v-0.3h0.3h1.7h0.3v0.3L38.6,80.9L38.6,80.9z"/>
		<path class="st0" d="M21.2,36.3c3.7,0,6.8,3,6.8,6.6c0,2-1,3.9-2.5,5.1l0,0l0,0c-1,0.8-2,1.6-2.9,2.5c-5.6,5.4-9,12.9-9,21.3
			c0,8.3,3.5,15.8,9,21.3c5.6,5.4,13.3,8.8,21.9,8.8s16.3-3.4,21.9-8.8c5.6-5.4,9-12.9,9-21.3s-3.5-15.8-9-21.3
			c-0.9-0.9-1.8-1.7-2.8-2.4L63.5,48h-0.1l0,0l0,0c-1.6-1.2-2.5-3-2.5-5.1c0-3.6,3.1-6.6,6.8-6.6c1.6,0,3.1,0.5,4.2,1.5
			c1.4,1.1,2.8,2.2,4,3.5C84,49.1,89,59.9,89,71.8c0,12-5,22.7-13.1,30.5c-8,7.8-19.2,12.7-31.4,12.7c-12.3,0-23.4-4.8-31.4-12.7
			C5,94.5,0,83.7,0,71.8c0-12,5-22.7,13.1-30.5c1.2-1.2,2.5-2.3,3.9-3.4C18,36.9,19.5,36.3,21.2,36.3L21.2,36.3z"/>
		<path class="st0" d="M36,2.1c0-0.3,0.1-0.7,0.3-1.1c0.2-0.3,0.5-0.6,0.8-0.8S37.8,0,38.2,0c0.3,0,0.7,0.1,1.1,0.3
			c0.3,0.2,0.6,0.5,0.8,0.8c0.2,0.3,0.3,0.7,0.3,1.1s-0.1,0.7-0.3,1.1S39.6,3.8,39.3,4c-0.3,0.2-0.7,0.3-1.1,0.3S37.4,4.2,37.1,4
			c-0.3-0.2-0.6-0.5-0.8-0.8C36.1,2.8,36,2.5,36,2.1L36,2.1z M36.4,2.1c0,0.3,0.1,0.6,0.2,0.9c0.1,0.3,0.4,0.5,0.7,0.7
			s0.6,0.3,0.9,0.3c0.3,0,0.6-0.1,0.9-0.3c0.3-0.1,0.5-0.4,0.7-0.7C39.9,2.7,40,2.4,40,2.1c0-0.3-0.1-0.6-0.3-0.9
			c-0.1-0.3-0.4-0.5-0.7-0.7c-0.3-0.1-0.6-0.2-0.9-0.2c-0.3,0-0.6,0.1-0.9,0.3c-0.3,0.1-0.5,0.4-0.7,0.7C36.5,1.5,36.4,1.8,36.4,2.1
			L36.4,2.1z M39.4,3h-2.3V2.2c0-0.3,0-0.5,0.1-0.6s0.1-0.2,0.2-0.3c0.1-0.1,0.2-0.1,0.3-0.1c0.1,0,0.3,0.1,0.5,0.2
			c0.1,0.1,0.2,0.3,0.2,0.5c0.1-0.1,0.1-0.1,0.1-0.2c0.1-0.1,0.3-0.2,0.5-0.3l0.5-0.3v0.5l-0.3,0.2c-0.3,0.1-0.5,0.3-0.5,0.4
			c-0.1,0.1-0.1,0.1-0.1,0.3v0.2h1V3H39.4z M38,2.7V2.2C38,2,38,1.9,38,1.8c-0.1-0.1-0.1-0.1-0.3-0.1c-0.1,0-0.1,0-0.2,0.1
			c-0.1,0.1-0.1,0.1-0.1,0.1c0,0.1-0.1,0.2-0.1,0.4v0.4L38,2.7L38,2.7z"/>
	</g>
</g>
</svg>
